<svg width="54" height="48" viewBox="0 0 54 48" fill="none" xmlns="http://www.w3.org/2000/svg">
<path d="M27.0002 0.300049C24.636 0.300049 22.3686 1.23923 20.6968 2.91098C19.0251 4.58274 18.0859 6.85012 18.0859 9.21433C18.0859 11.5786 19.0251 13.8459 20.6968 15.5177C22.3686 17.1894 24.636 18.1286 27.0002 18.1286C29.3644 18.1286 31.6318 17.1894 33.3035 15.5177C34.9753 13.8459 35.9145 11.5786 35.9145 9.21433C35.9145 6.85012 34.9753 4.58274 33.3035 2.91098C31.6318 1.23923 29.3644 0.300049 27.0002 0.300049ZM12.3005 24.0596C12.1995 24.5429 12.149 25.0421 12.149 25.5572V35.9572C12.147 38.1144 12.6158 40.2461 13.5227 42.2035C14.4295 44.1609 15.7526 45.8969 17.3995 47.2902L16.8914 47.4388C15.3836 47.8432 13.8109 47.9467 12.2631 47.7433C10.7153 47.5399 9.22279 47.0335 7.87072 46.2532C6.51866 45.4728 5.33356 44.4338 4.3831 43.1954C3.43265 41.957 2.73547 40.5435 2.33137 39.0356L0.40886 31.8596C0.257438 31.2942 0.21887 30.7045 0.29536 30.1241C0.37185 29.5438 0.561899 28.9842 0.854656 28.4774C1.14741 27.9705 1.53714 27.5262 2.00159 27.17C2.46604 26.8137 2.99612 26.5525 3.56155 26.4011L12.3005 24.0596ZM36.6127 47.2902C38.2597 45.8969 39.5827 44.1609 40.4895 42.2035C41.3964 40.2461 41.8652 38.1144 41.8633 35.9572V25.5572C41.8613 25.0421 41.8118 24.5429 41.7147 24.0596L50.4507 26.4011C51.5921 26.7075 52.5651 27.4546 53.1557 28.4782C53.7464 29.5018 53.9063 30.7181 53.6004 31.8596L51.6779 39.0356C51.2622 40.5862 50.5367 42.0365 49.5452 43.299C48.5537 44.5615 47.3167 45.6101 45.9089 46.3815C44.5011 47.1529 42.9515 47.6312 41.3538 47.7873C39.7561 47.9435 38.1433 47.7744 36.6127 47.2902ZM46.3145 6.24291C44.3443 6.24291 42.4548 7.02556 41.0617 8.41868C39.6685 9.81181 38.8859 11.7013 38.8859 13.6715C38.8859 15.6417 39.6685 17.5311 41.0617 18.9243C42.4548 20.3174 44.3443 21.1 46.3145 21.1C48.2846 21.1 50.1741 20.3174 51.5673 18.9243C52.9604 17.5311 53.743 15.6417 53.743 13.6715C53.743 11.7013 52.9604 9.81181 51.5673 8.41868C50.1741 7.02556 48.2846 6.24291 46.3145 6.24291ZM7.68589 6.24291C5.71571 6.24291 3.82622 7.02556 2.4331 8.41868C1.03997 9.81181 0.257317 11.7013 0.257317 13.6715C0.257317 15.6417 1.03997 17.5311 2.4331 18.9243C3.82622 20.3174 5.71571 21.1 7.68589 21.1C9.65607 21.1 11.5456 20.3174 12.9387 18.9243C14.3318 17.5311 15.1145 15.6417 15.1145 13.6715C15.1145 11.7013 14.3318 9.81181 12.9387 8.41868C11.5456 7.02556 9.65607 6.24291 7.68589 6.24291ZM19.5716 21.1C18.3895 21.1 17.2558 21.5696 16.4199 22.4055C15.5841 23.2414 15.1145 24.3751 15.1145 25.5572V35.9572C15.1145 39.1095 16.3667 42.1327 18.5957 44.3617C20.8247 46.5907 23.8479 47.8429 27.0002 47.8429C30.1525 47.8429 33.1756 46.5907 35.4046 44.3617C37.6336 42.1327 38.8859 39.1095 38.8859 35.9572V25.5572C38.8859 24.3751 38.4163 23.2414 37.5804 22.4055C36.7445 21.5696 35.6109 21.1 34.4287 21.1H19.5716Z" fill="#2664EB"/>
</svg>
