<svg width="40" height="55" viewBox="0 0 40 55" fill="none" xmlns="http://www.w3.org/2000/svg">
<path fill-rule="evenodd" clip-rule="evenodd" d="M20 0.0239258V16.1192C20 17.1043 20.3913 18.049 21.0879 18.7456C21.7845 19.4421 22.7292 19.8334 23.7143 19.8334H39.8095V44.5954C39.8095 45.9088 39.2878 47.1685 38.359 48.0972C37.4303 49.026 36.1706 49.5477 34.8572 49.5477H5.14287C3.82942 49.5477 2.56976 49.026 1.64101 48.0972C0.712258 47.1685 0.190491 45.9088 0.190491 44.5954V4.97631C0.190491 3.66285 0.712258 2.4032 1.64101 1.47444C2.56976 0.545693 3.82942 0.0239258 5.14287 0.0239258H20ZM27.4286 32.2144H12.5714C11.9147 32.2144 11.2849 32.4753 10.8205 32.9397C10.3561 33.404 10.0953 34.0339 10.0953 34.6906C10.0953 35.3473 10.3561 35.9771 10.8205 36.4415C11.2849 36.9059 11.9147 37.1668 12.5714 37.1668H27.4286C28.0853 37.1668 28.7151 36.9059 29.1795 36.4415C29.6439 35.9771 29.9048 35.3473 29.9048 34.6906C29.9048 34.0339 29.6439 33.404 29.1795 32.9397C28.7151 32.4753 28.0853 32.2144 27.4286 32.2144ZM15.0476 22.3096H12.5714C11.9147 22.3096 11.2849 22.5705 10.8205 23.0349C10.3561 23.4993 10.0953 24.1291 10.0953 24.7858C10.0953 25.4426 10.3561 26.0724 10.8205 26.5368C11.2849 27.0011 11.9147 27.262 12.5714 27.262H15.0476C15.7044 27.262 16.3342 27.0011 16.7986 26.5368C17.2629 26.0724 17.5238 25.4426 17.5238 24.7858C17.5238 24.1291 17.2629 23.4993 16.7986 23.0349C16.3342 22.5705 15.7044 22.3096 15.0476 22.3096ZM24.9524 0.130402C25.8906 0.329377 26.7508 0.796476 27.4286 1.47497L38.3585 12.4049C39.037 13.0827 39.5041 13.9429 39.7031 14.8811H24.9524V0.130402Z" fill="#2664EB"/>
</svg>
