<svg width="54" height="52" viewBox="0 0 54 52" fill="none" xmlns="http://www.w3.org/2000/svg">
<path d="M24.4005 27.8049L20.81 24.2763C20.356 23.8224 19.789 23.5954 19.1089 23.5954C18.4287 23.5954 17.8402 23.843 17.3433 24.3382C16.8894 24.7922 16.6624 25.37 16.6624 26.0716C16.6624 26.7731 16.8894 27.3509 17.3433 27.8049L22.6671 33.1287C23.1624 33.6239 23.7402 33.8716 24.4005 33.8716C25.0608 33.8716 25.6386 33.6239 26.1338 33.1287L36.6576 22.6049C37.1529 22.1097 37.3897 21.5319 37.3683 20.8716C37.3468 20.2112 37.1099 19.6335 36.6576 19.1382C36.1624 18.643 35.5747 18.3855 34.8946 18.3657C34.2144 18.3458 33.6259 18.5827 33.129 19.0763L24.4005 27.8049ZM17.4671 50.2144L13.8767 44.1477L7.06714 42.662C6.44809 42.5382 5.95285 42.2188 5.58142 41.7038C5.21 41.1887 5.06555 40.6208 5.14809 40.0001L5.82904 33.0049L1.18619 27.6811C0.773488 27.2271 0.567139 26.6906 0.567139 26.0716C0.567139 25.4525 0.773488 24.916 1.18619 24.462L5.82904 19.1382L5.14809 12.143C5.06555 11.5239 5.21 10.9561 5.58142 10.4394C5.95285 9.92267 6.44809 9.60324 7.06714 9.48108L13.8767 7.99537L17.4671 1.9287C17.7973 1.3922 18.2513 1.03067 18.829 0.844132C19.4068 0.657593 19.9846 0.688958 20.5624 0.938227L27.0005 3.66204L33.4386 0.938227C34.0163 0.690608 34.5941 0.659243 35.1719 0.844132C35.7497 1.02902 36.2036 1.39054 36.5338 1.9287L40.1243 7.99537L46.9338 9.48108C47.5528 9.60489 48.0481 9.92515 48.4195 10.4418C48.7909 10.9585 48.9354 11.5256 48.8529 12.143L48.1719 19.1382L52.8148 24.462C53.2274 24.916 53.4338 25.4525 53.4338 26.0716C53.4338 26.6906 53.2274 27.2271 52.8148 27.6811L48.1719 33.0049L48.8529 40.0001C48.9354 40.6192 48.7909 41.187 48.4195 41.7038C48.0481 42.2204 47.5528 42.5399 46.9338 42.662L40.1243 44.1477L36.5338 50.2144C36.2036 50.7509 35.7497 51.1124 35.1719 51.299C34.5941 51.4855 34.0163 51.4542 33.4386 51.2049L27.0005 48.4811L20.5624 51.2049C19.9846 51.4525 19.4068 51.4839 18.829 51.299C18.2513 51.1141 17.7973 50.7526 17.4671 50.2144Z" fill="#2664EB"/>
</svg>
